<svg xmlns="http://www.w3.org/2000/svg" viewBox="0 0 159.66 58.07"><defs><style>.cls-1{fill:#24ce80;}</style></defs><g id="Layer_2" data-name="Layer 2"><g id="Layer_1-2" data-name="Layer 1"><path d="M12.12,16.18c3.93,0,6,2.3,6.32,4.86h5.29c-.56-4.95-4.23-9.52-11.61-9.52C5.38,11.52,0,16.18,0,23.39S5.38,35.25,12.12,35.25c7.43,0,11.05-4.56,11.61-9.51H18.44c-.34,2.56-2.39,4.86-6.32,4.86A6.82,6.82,0,0,1,5,23.39,6.82,6.82,0,0,1,12.12,16.18Z"/><path d="M37.52,11.52A6.19,6.19,0,0,0,31,16.22V12.08H26.85V34.7H31.8V19.85a3.78,3.78,0,0,1,3.88-4.1c2,0,3.08,1.58,3.08,3.75h4.73C43.71,14.25,40.76,11.52,37.52,11.52Z"/><path d="M56.13,11.52c-6,0-11.31,4.66-11.31,11.87s4.91,11.86,11.56,11.86c6.49,0,9.65-3.54,10.42-7.72H62.15C61.59,29.41,60,31,56.43,31c-3.76,0-6-2.14-6.36-5.89H66.88a6.26,6.26,0,0,0,.17-1.75C67.05,16,62.1,11.52,56.13,11.52Zm-6,9.78c.3-3.55,2.44-5.55,5.81-5.55s5.5,1.83,5.8,5.55Z"/><path d="M96.47,4.23A2.44,2.44,0,0,1,99.11,6.7h4.35c-.21-3.24-2.21-6.7-7-6.7-4.49,0-7.6,2.73-7.6,7.21v4.87h-12V7a2.55,2.55,0,0,1,2.65-2.81A2.45,2.45,0,0,1,82.17,6.7h4.35c-.21-3.24-2.22-6.7-7-6.7-4.48,0-7.6,2.73-7.6,7.21v4.87h-4v4.48h4V34.7h5V16.56h12V34.7h4.95V16.56h6.49V12.08H93.82V7A2.55,2.55,0,0,1,96.47,4.23Z"/><rect x="103.97" y="12.08" width="4.95" height="22.62"/><path d="M121.61,6.32h-5v5.76h-4v4.48h4V28.3c0,4.73,2.91,7,7.73,7a10.06,10.06,0,0,0,3.37-.55V30.52a9.06,9.06,0,0,1-2.69.42c-2.35,0-3.46-1-3.46-3.54V16.56h6.49V12.08h-6.49Z"/><rect x="131.94" y="12.08" width="4.95" height="22.62"/><polygon class="cls-1" points="154.33 12.08 152.49 12.08 145.11 12.08 145.11 19.25 152.49 19.25 152.49 26.63 159.66 26.63 159.66 19.25 159.66 17.2 159.66 12.08 154.33 12.08"/><polygon class="cls-1" points="152.49 43.52 152.49 50.9 145.11 50.9 145.11 58.07 152.49 58.07 154.53 58.07 159.66 58.07 159.66 52.74 159.66 50.9 159.66 43.52 152.49 43.52"/><polygon class="cls-1" points="120.84 50.9 120.84 43.52 113.67 43.52 113.67 50.9 113.67 52.74 113.67 58.07 118.79 58.07 120.84 58.07 128.22 58.07 128.22 50.9 120.84 50.9"/></g></g></svg>