<svg xmlns="http://www.w3.org/2000/svg" viewBox="0 0 282.21 132.17"><defs><style>.cls-1{fill:#24ce80;}.cls-2{stroke:#000;stroke-miterlimit:10;stroke-width:0.5px;}</style></defs><g id="Layer_2" data-name="Layer 2"><g id="Layer_1-2" data-name="Layer 1"><polygon class="cls-1" points="275.45 77.79 273.27 77.79 264.55 77.79 264.55 86.28 273.27 86.28 273.27 95 281.75 95 281.75 86.28 281.75 83.85 281.75 77.79 275.45 77.79"/><polygon class="cls-1" points="273.27 114.96 273.27 123.69 264.55 123.69 264.55 132.17 273.27 132.17 275.7 132.17 281.75 132.17 281.75 125.87 281.75 123.69 281.75 114.96 273.27 114.96"/><polygon class="cls-1" points="235.86 123.69 235.86 114.96 227.38 114.96 227.38 123.69 227.38 125.87 227.38 132.17 233.44 132.17 235.86 132.17 244.59 132.17 244.59 123.69 235.86 123.69"/><path class="cls-2" d="M17,55.84c9.6,0,15.24-6.1,16.05-12.93H27.91c-.69,3.84-4,8.2-10.46,8.2-6.79,0-12-4.66-12-12.47s5.2-12.46,12-12.46c6.49,0,9.77,4.36,10.46,8.2h5.16c-.81-6.83-6.45-12.94-16-12.94S.25,28.27.25,38.64,7.33,55.84,17,55.84Z"/><path class="cls-2" d="M41.87,40.44a3.77,3.77,0,0,1,3.88-4.1c2,0,3.07,1.58,3.07,3.76h4.74c.21-5.25-2.73-8-6-8a6.19,6.19,0,0,0-6.49,4.7V32.67H36.92V55.29h4.95Z"/><path class="cls-2" d="M72.21,48.12c-.55,1.88-2.13,3.5-5.71,3.5-3.76,0-6-2.14-6.36-5.89H77A6.26,6.26,0,0,0,77.12,44c0-7.38-5-11.87-10.92-11.87S54.89,36.77,54.89,44s4.9,11.86,11.56,11.86c6.49,0,9.65-3.54,10.42-7.72ZM66,36.34c3.37,0,5.5,1.83,5.8,5.55H60.22C60.52,38.35,62.65,36.34,66,36.34Z"/><path class="cls-2" d="M86.94,55.29V37.15h12V55.29h5V37.15h6.49V32.67h-6.49v-5a2.55,2.55,0,0,1,2.64-2.81,2.44,2.44,0,0,1,2.65,2.47h4.35c-.21-3.24-2.22-6.7-7-6.7-4.48,0-7.59,2.73-7.59,7.21v4.87h-12v-5a2.55,2.55,0,0,1,2.65-2.81,2.45,2.45,0,0,1,2.65,2.47h4.35c-.21-3.24-2.22-6.7-7-6.7-4.48,0-7.6,2.73-7.6,7.21v4.87h-4v4.48h4V55.29Z"/><rect class="cls-2" x="115.07" y="32.67" width="4.95" height="22.62"/><circle class="cls-2" cx="117.54" cy="25.76" r="3.16"/><path class="cls-2" d="M127.49,48.89c0,4.73,2.91,7,7.73,7a10.06,10.06,0,0,0,3.37-.55V51.11a9.06,9.06,0,0,1-2.69.42c-2.35,0-3.46-1-3.46-3.54V37.15h6.49V32.67h-6.49V26.91h-5v5.76h-4v4.48h4Z"/><circle class="cls-2" cx="145.46" cy="25.76" r="3.16"/><rect class="cls-2" x="142.99" y="32.67" width="4.95" height="22.62"/><path class="cls-2" d="M187.72,45.52a7.79,7.79,0,0,0-5.12-7.64,7.7,7.7,0,0,0,4-6.7c0-5.94-4.19-9.18-10-9.18h-14V55.29h14.47C183.92,55.29,187.72,51.66,187.72,45.52Zm-20-18.78h9.35a4.28,4.28,0,0,1,4.35,4.61,4.28,4.28,0,0,1-4.57,4.48H167.7Zm9.69,23.81H167.7V40.61h9.69c2.18,0,5.12,1.32,5.12,4.78A4.82,4.82,0,0,1,177.39,50.55Z"/><path class="cls-2" d="M202.15,32.11a6.19,6.19,0,0,0-6.49,4.7V32.67h-4.18V55.29h5V40.44a3.77,3.77,0,0,1,3.88-4.1c2,0,3.07,1.58,3.07,3.76h4.74C208.33,34.85,205.39,32.11,202.15,32.11Z"/><path class="cls-2" d="M217.13,41.67c-5.17.86-7.68,2.91-7.68,7.35,0,3.62,2.69,6.82,7.34,6.82,4.22,0,6.91-2,8.06-5.54v5H229V40.86c0-5.33-3.5-8.75-9.48-8.75-6.31,0-9.09,4-9.43,8h4.35c.17-2.35,2.09-3.76,5-3.76s4.61,1.62,4.61,3.84v.34Zm7,3.29c0,2.73-1.8,6.66-6.06,6.66-2,0-3.38-1.2-3.38-2.95s.9-2.94,3.29-3.41l6.15-1Z"/><path class="cls-2" d="M238.39,42.49a5.65,5.65,0,0,1,6-5.72c3.24,0,5.25,2,5.25,5.08V55.29h4.95v-15c0-4.23-3.11-8.2-8.71-8.2-4.09,0-7,1.84-8.23,5.55v-5h-4.18V55.29h4.95Z"/><path class="cls-2" d="M276.8,21.15V36.68c-1.32-2.73-4.35-4.57-8.24-4.57-5.59,0-10.88,4.66-10.88,11.87s5.12,11.86,10.88,11.86c3.89,0,7.77-2.09,9-5.72v5.17h4.18V21.15Zm-7.13,30c-3.24,0-6.95-2-6.95-7.21s3.71-7.21,6.95-7.21A6.81,6.81,0,0,1,276.8,44,6.81,6.81,0,0,1,269.67,51.19Z"/><path class="cls-2" d="M25.81,78.27a9.61,9.61,0,0,0-10-10H1.53v33.29H6.65V88.3h6.28l7.93,13.23h6.06L18.64,88A9.52,9.52,0,0,0,25.81,78.27ZM6.65,83.56V73h8.71a5.29,5.29,0,0,1,0,10.58Z"/><path class="cls-2" d="M38.67,78.36c-6,0-11.31,4.65-11.31,11.86s4.9,11.87,11.56,11.87c6.49,0,9.65-3.55,10.41-7.73H44.68c-.55,1.88-2.13,3.5-5.72,3.5-3.75,0-6-2.13-6.36-5.89H49.42a6.26,6.26,0,0,0,.17-1.75C49.59,82.84,44.64,78.36,38.67,78.36Zm-6,9.77c.3-3.54,2.43-5.55,5.8-5.55S44,84.42,44.3,88.13Z"/><polygon class="cls-2" points="61.37 95.81 55.23 78.91 49.85 78.91 58.6 101.62 64.15 101.62 72.9 78.91 67.48 78.91 61.37 95.81"/><circle class="cls-2" cx="78.24" cy="72" r="3.16"/><rect class="cls-2" x="75.76" y="78.91" width="4.95" height="22.62"/><path class="cls-2" d="M95.91,78.36c-6,0-11.31,4.65-11.31,11.86s4.9,11.87,11.56,11.87c6.49,0,9.65-3.55,10.42-7.73h-4.66c-.55,1.88-2.13,3.5-5.72,3.5-3.75,0-6-2.13-6.36-5.89h16.82a6.26,6.26,0,0,0,.17-1.75C106.83,82.84,101.88,78.36,95.91,78.36Zm-6,9.77c.3-3.54,2.43-5.55,5.8-5.55s5.51,1.84,5.81,5.55Z"/><polygon class="cls-2" points="132.53 94.58 127.36 78.91 121.6 78.91 116.44 94.58 112.47 78.91 107.18 78.91 113.49 101.62 119 101.62 124.46 85.14 129.97 101.62 135.47 101.62 141.79 78.91 136.5 78.91 132.53 94.58"/><path class="cls-2" d="M169,90.73c4.18-3.92,6.61-7.42,6.61-12.42,0-6.48-4.65-10.62-11.6-10.62-7.64,0-11.31,4.44-11.53,11h4.91c.13-4.4,2.69-6.36,6.62-6.36,4.09,0,6.57,2.34,6.57,6.27,0,3.41-1.75,6.7-5,9.94-4.87,4.87-12.51,9.09-13.7,9.65v3.37h24.37V97L160.1,97A39.6,39.6,0,0,0,169,90.73Z"/><path class="cls-2" d="M190.75,67.69c-8.11,0-11.82,6.61-11.82,17.2s3.71,17.2,11.82,17.2,11.82-6.62,11.82-17.2S198.86,67.69,190.75,67.69Zm0,29.79c-4.61,0-6.79-4.27-6.79-12.59s2.18-12.59,6.79-12.59,6.79,4.26,6.79,12.59S195.36,97.48,190.75,97.48Z"/><path class="cls-2" d="M222.34,90.73c4.18-3.92,6.61-7.42,6.61-12.42,0-6.48-4.65-10.62-11.61-10.62-7.64,0-11.31,4.44-11.52,11h4.91c.13-4.4,2.69-6.36,6.61-6.36,4.1,0,6.58,2.34,6.58,6.27,0,3.41-1.75,6.7-5,9.94-4.86,4.87-12.5,9.09-13.7,9.65v3.37h24.37V97L213.46,97A39.83,39.83,0,0,0,222.34,90.73Z"/><path class="cls-2" d="M246.71,67.69H243a26.33,26.33,0,0,1-2.95,3.2,19.22,19.22,0,0,1-7.59,4.44V80a19.71,19.71,0,0,0,6.74-3,16.81,16.81,0,0,0,2.47-2V97h-8.79v4.57H255V97h-8.28Z"/><rect x="0.46" y="127.14" width="210.22" height="5.03"/><rect x="0.25" width="281.96" height="5.03"/></g></g></svg>