<svg width="20" height="17" viewBox="0 0 20 17" fill="none" xmlns="http://www.w3.org/2000/svg">
<path d="M10 0C14.9838 0 19.1302 3.66444 20 8.5C19.1312 13.3356 14.9838 17 10 17C5.01618 17 0.869766 13.3356 0 8.5C0.868842 3.66444 5.01618 0 10 0ZM10 15.1111C11.8851 15.1107 13.7142 14.4564 15.188 13.2554C16.6617 12.0544 17.6929 10.3778 18.1126 8.5C17.6913 6.62368 16.6595 4.94889 15.1859 3.74947C13.7123 2.55005 11.884 1.89694 10 1.89694C8.116 1.89694 6.28772 2.55005 4.8141 3.74947C3.34048 4.94889 2.30869 6.62368 1.88742 8.5C2.30714 10.3778 3.33827 12.0544 4.81204 13.2554C6.28581 14.4564 8.11492 15.1107 10 15.1111ZM10 12.75C8.89687 12.75 7.83893 12.3022 7.0589 11.5052C6.27887 10.7082 5.84065 9.62717 5.84065 8.5C5.84065 7.37283 6.27887 6.29183 7.0589 5.4948C7.83893 4.69777 8.89687 4.25 10 4.25C11.1031 4.25 12.1611 4.69777 12.9411 5.4948C13.7211 6.29183 14.1593 7.37283 14.1593 8.5C14.1593 9.62717 13.7211 10.7082 12.9411 11.5052C12.1611 12.3022 11.1031 12.75 10 12.75ZM10 10.8611C10.6128 10.8611 11.2006 10.6124 11.6339 10.1696C12.0673 9.72676 12.3108 9.12621 12.3108 8.5C12.3108 7.87379 12.0673 7.27324 11.6339 6.83044C11.2006 6.38765 10.6128 6.13889 10 6.13889C9.38715 6.13889 8.7994 6.38765 8.36605 6.83044C7.9327 7.27324 7.68925 7.87379 7.68925 8.5C7.68925 9.12621 7.9327 9.72676 8.36605 10.1696C8.7994 10.6124 9.38715 10.8611 10 10.8611Z" fill="#030303"/>
</svg>
