<svg width="206" height="410" viewBox="0 0 206 410" fill="none" xmlns="http://www.w3.org/2000/svg">
<path d="M151.673 258.919H76.7021L130.394 75.5408H206L151.673 258.919Z" fill="#DBBBEF"/>
<path d="M206 0H130.394V75.5407H206V0Z" fill="#58E0B2"/>
<path d="M130.394 0L75.6173 186.438L76.7021 258.919L130.394 75.5407V0Z" fill="#D87BFF"/>
<path d="M77.0199 410H1.09576L54.4695 226.622H130.394L77.0199 410Z" fill="#E3C1F4"/>
<path d="M151.125 410H76.1542L130.481 226.622H205.452L151.125 410Z" fill="#E3C1F4"/>
<path d="M54.7872 76.0881L0 259.466V337.744L54.7872 154.733V76.0881Z" fill="#D87BFF"/>
<path d="M54.7872 154.913L0.0109253 337.519L1.09571 410L54.7872 226.622V154.913Z" fill="#D87BFF"/>
<path d="M54.7872 226.622L205.452 226.622V151.629H54.7872V226.622Z" fill="#01A572"/>
<path d="M54.7872 76.0881L54.7872 226.622H129.846V76.0881H54.7872Z" fill="#01A572"/>
</svg>
