<svg width="280" height="407" viewBox="0 0 280 407" fill="none" xmlns="http://www.w3.org/2000/svg">
<path d="M77.149 256.279H1.66675L54.7298 74H130.212L77.149 256.279Z" fill="#70FACF"/>
<path d="M55.0457 0L0 193.129L1.63405 256.067L55.0457 74.3645V0Z" fill="#58E0B2"/>
<path d="M130.212 74L76.844 256.056L76.2884 331.912L130.212 149.632V74Z" fill="#58E0B2"/>
<path d="M225.444 407H150.91L204.921 224.721H279.455L225.444 407Z" fill="#70FACF"/>
<path d="M204.834 0H55.0457V74.5441H204.834V0Z" fill="#01A572"/>
<path d="M204.834 149.632V0L130.212 0V149.632H204.834Z" fill="#01A572"/>
<path d="M280 149.632H204.834V224.721H280V149.632Z" fill="#D87BFF"/>
<path d="M150.823 331.912H76.2884L130.299 149.632H204.834L150.823 331.912Z" fill="#70FACF"/>
<path d="M204.834 149.088L151.466 331.145L150.91 407L204.834 224.721V149.088Z" fill="#58E0B2"/>
</svg>
