<svg width="293" height="242" viewBox="0 0 293 242" fill="none" xmlns="http://www.w3.org/2000/svg">
<rect opacity="0.1" width="203" height="203" fill="#58E0B2"/>
<path d="M155.969 241.79L221 241.79L221 192.602L155.969 192.602L155.969 241.79Z" fill="#01A572"/>
<path d="M121 241.79L168.853 241.79L168.853 192.602L121 192.602L121 241.79Z" fill="#01A572"/>
<path d="M121.001 205.845L168.854 205.845L168.854 139L121.001 139L121.001 205.845Z" fill="#01A572"/>
<path d="M203.232 130.16H213.216V123.44H203.232V113.84H194.528V123.44H188.64V130.16H194.528V143.344C194.528 147.504 194.208 150.576 195.936 153.712C198.752 158.768 206.048 159.344 213.216 158V150.768C209.12 151.344 205.472 151.472 203.936 149.04C203.104 147.76 203.232 145.52 203.232 142.832V130.16ZM239.798 122.416C234.806 122.416 231.094 124.208 228.598 127.024V111.92H220.854V158H229.686V140.464C229.686 131.888 234.038 130.608 237.046 130.608C244.47 130.608 244.47 138.544 244.47 141.68V158H253.302V138.608C253.302 135.728 253.302 122.416 239.798 122.416Z" fill="#58E0B2"/>
</svg>
