<svg width="139" height="202" viewBox="0 0 139 202" fill="none" xmlns="http://www.w3.org/2000/svg">
<g clip-path="url(#clip0)">
<path d="M112.184 127.565H75.1787L101.681 37.2178H139L112.184 127.565Z" fill="#95EDF4"/>
<path d="M139 0H101.681V37.2176H139V0Z" fill="#828282"/>
<path d="M101.681 0L74.6436 91.8547L75.179 127.565L101.681 37.2176V0Z" fill="#57CAFF"/>
<path d="M58.6401 202H21.6348L48.4504 111.653H85.4558L58.6401 202Z" fill="#9FF3FE"/>
<path d="M38.0169 202H0.541016L26.8861 111.653H64.362L38.0169 202Z" fill="#9FF3FE"/>
<path d="M74.5952 202H37.5898L64.4055 111.653H101.411L74.5952 202Z" fill="#9FF3FE"/>
<path d="M27.0428 37.4873L0 127.834V166.401L27.0428 76.2341V37.4873Z" fill="#57CAFF"/>
<path d="M27.0433 76.323L0.00585938 166.29L0.541307 202L27.0433 111.653V76.323Z" fill="#57CAFF"/>
<path d="M27.0425 111.653L101.41 111.653V74.7049H27.0425V111.653Z" fill="#01A572"/>
<path d="M27.043 37.4873L27.043 111.653H64.0916V37.4873H27.043Z" fill="#01A572"/>
</g>
<defs>
<clipPath id="clip0">
<rect width="139" height="202" fill="white"/>
</clipPath>
</defs>
</svg>
