<svg width="346" height="503" viewBox="0 0 346 503" fill="none" xmlns="http://www.w3.org/2000/svg">
<g clip-path="url(#clip0)">
<path d="M95.334 316.729H2.05957L67.6303 91.4546H160.905L95.334 316.729Z" fill="#70FACF"/>
<path d="M68.0208 0L0 238.683L2.01922 316.466L68.0208 91.9051V0Z" fill="#58E0B2"/>
<path d="M160.905 91.4546L94.957 316.453L94.2705 410.201L160.905 184.927V91.4546Z" fill="#58E0B2"/>
<path d="M278.585 503H186.481L253.223 277.726H345.327L278.585 503Z" fill="#70FACF"/>
<path d="M253.116 0H68.0205V92.127H253.116V0Z" fill="#01A572"/>
<path d="M253.116 184.926V0L160.905 0V184.926H253.116Z" fill="#01A572"/>
<path d="M346 184.927H253.116V277.726H346V184.927Z" fill="#D87BFF"/>
<path d="M186.374 410.201H94.2705L161.012 184.927H253.116L186.374 410.201Z" fill="#70FACF"/>
<path d="M253.116 184.254L187.168 409.253L186.481 503L253.116 277.726V184.254Z" fill="#58E0B2"/>
</g>
<defs>
<clipPath id="clip0">
<rect width="346" height="503" fill="white"/>
</clipPath>
</defs>
</svg>
