<svg width="250" height="498" viewBox="0 0 250 498" fill="none" xmlns="http://www.w3.org/2000/svg">
<path d="M184.069 314.491H93.0851L158.245 91.7544H250L184.069 314.491Z" fill="#DBBBEF"/>
<path d="M250 0H158.245V91.7543H250V0Z" fill="#58E0B2"/>
<path d="M158.245 0L91.7686 226.454L93.085 314.491L158.245 91.7543V0Z" fill="#D87BFF"/>
<path d="M144.176 498H53.1915L119.122 275.263H210.106L144.176 498Z" fill="#9FF3FE"/>
<path d="M93.4708 498H1.32983L66.1038 275.263H158.245L93.4708 498Z" fill="#E3C1F4"/>
<path d="M183.404 498H92.4202L158.351 275.263H249.335L183.404 498Z" fill="#E3C1F4"/>
<path d="M66.4894 92.4192L0 315.156V410.235L66.4894 187.943V92.4192Z" fill="#D87BFF"/>
<path d="M66.4892 188.163L0.0131836 409.962L1.32967 498L66.4892 275.263V188.163Z" fill="#D87BFF"/>
<path d="M66.4893 275.263H249.335V184.174L66.4893 184.174V275.263Z" fill="#01A572"/>
<path d="M66.4894 92.4193L66.4894 275.263H157.58V92.4193H66.4894Z" fill="#01A572"/>
</svg>
