<svg xmlns="http://www.w3.org/2000/svg" viewBox="0 0 415.81 749"><defs><style>.cls-1{fill:#95edf4;}.cls-2{fill:#ffbf75;}.cls-3{fill:#57caff;}.cls-4{fill:#9ff3fe;}.cls-5{fill:#01a572;}</style></defs><g id="Layer_2" data-name="Layer 2"><g id="Layer_1-2" data-name="Layer 1"><polygon class="cls-1" points="316.65 473 179.81 473 277.81 138 415.81 138 316.65 473"/><rect class="cls-2" x="277.81" width="138" height="138"/><polygon class="cls-3" points="277.81 0 177.83 340.59 179.81 473 277.81 138 277.81 0"/><polygon class="cls-4" points="216.84 749 80 749 179.16 414 316 414 216.84 749"/><polygon class="cls-4" points="140.58 749 2 749 99.42 414 238 414 140.58 749"/><polygon class="cls-4" points="275.84 749 139 749 238.16 414 375 414 275.84 749"/><polygon class="cls-3" points="100 139 0 474 0 617 100 282.67 100 139"/><polygon class="cls-3" points="100 283 0.02 616.59 2 749 100 414 100 283"/><polygon class="cls-3" points="100 211.07 0.02 544.66 2 677.07 100 342.07 100 211.07"/><rect class="cls-5" x="100" y="277" width="275" height="137"/><rect class="cls-5" x="100" y="139" width="137" height="275"/></g></g></svg>