<svg id="Layer_1" data-name="Layer 1" xmlns="http://www.w3.org/2000/svg" viewBox="0 0 514.06 748"><defs><style>.cls-1{fill:#ffeacf;}.cls-2{fill:#ffbf75;}.cls-3{fill:#01a572;}.cls-4{fill:#57caff;}</style></defs><polygon class="cls-1" points="141.64 609 3.06 609 100.48 274 239.06 274 141.64 609"/><polygon class="cls-2" points="101.06 138 0 492.94 3 608.61 101.06 274.67 101.06 138"/><polygon class="cls-2" points="239.06 274 141.08 608.59 140.06 748 239.06 413 239.06 274"/><polygon class="cls-2" points="376.06 0 274.57 356.45 277.58 472.61 376.06 137.25 376.06 0"/><polygon class="cls-1" points="413.9 473 277.06 473 376.22 138 513.06 138 413.9 473"/><rect class="cls-3" x="101.06" y="138" width="275" height="137"/><rect class="cls-3" x="239.06" y="138" width="137" height="275"/><rect class="cls-4" x="376.06" width="138" height="138"/><polygon class="cls-1" points="276.9 748 140.06 748 239.22 413 376.06 413 276.9 748"/></svg>