<svg xmlns="http://www.w3.org/2000/svg" viewBox="0 0 502.63 365.8"><defs><style>.cls-1{fill:#ffe7ca;}.cls-2{fill:#01a572;}.cls-3{fill:#47f9ca;}.cls-4{fill:#f2994a;}.cls-5{fill:#fff;}</style></defs><g id="Layer_2" data-name="Layer 2"><g id="Layer_1-2" data-name="Layer 1"><rect class="cls-1" x="69.42" y="112.31" width="385" height="206.49"/><polygon class="cls-1" points="137.48 365.8 177.32 296.8 97.64 296.8 137.48 365.8"/><rect class="cls-2" x="469.13" y="64.32" width="33.5" height="33.5" transform="translate(566.94 -404.81) rotate(90)"/><rect class="cls-2" x="436.63" y="64.32" width="33.5" height="33.5" transform="translate(534.44 -372.31) rotate(90)"/><rect class="cls-2" x="469.13" y="96.82" width="33.5" height="33.5" transform="translate(599.44 -372.31) rotate(90)"/><circle class="cls-3" cx="78.76" cy="78.76" r="78.76"/><polygon class="cls-3" points="149.1 161.99 135.31 110.49 97.61 148.19 149.1 161.99"/><rect class="cls-2" x="40.85" y="41.31" width="69.58" height="12.41"/><rect class="cls-2" x="40.99" y="66.93" width="53.4" height="12.41"/><rect class="cls-4" x="199.02" y="179.5" width="193.57" height="18.54"/><rect class="cls-4" x="199.42" y="217.79" width="148.55" height="18.54"/><rect class="cls-5" x="117.59" y="179.12" width="57" height="57"/><rect class="cls-4" x="128.98" y="191.65" width="8.6" height="8.6"/><rect class="cls-4" x="154.3" y="191.76" width="8.6" height="8.6"/><rect class="cls-4" x="144.83" y="202.87" width="2.52" height="14.15"/><rect class="cls-4" x="133.27" y="219.31" width="8.6" height="2.75"/><rect class="cls-4" x="141.88" y="221.99" width="8.6" height="2.75"/><rect class="cls-4" x="150.46" y="219.32" width="8.6" height="2.75"/><rect class="cls-4" x="199.61" y="254.63" width="176.99" height="18.54"/></g></g></svg>