<svg xmlns="http://www.w3.org/2000/svg" viewBox="0 0 522.22 364.64"><defs><style>.cls-1{fill:#87f1fc;}.cls-2{fill:#2d9cdb;}.cls-3{fill:#ffe7ca;}.cls-4{fill:#f2994a;}.cls-5{fill:#fff;}.cls-6{fill:#01a572;}</style></defs><g id="Layer_2" data-name="Layer 2"><g id="Layer_1-2" data-name="Layer 1"><circle class="cls-1" cx="429.2" cy="93.02" r="93.02"/><polygon class="cls-1" points="512.28 191.31 495.98 130.5 451.46 175.02 512.28 191.31"/><rect class="cls-2" x="384.42" y="48.79" width="82.18" height="14.65"/><rect class="cls-2" x="384.59" y="79.05" width="63.07" height="14.65"/><rect class="cls-3" y="110.16" width="385" height="206.49"/><polygon class="cls-3" points="68.06 362.64 107.9 293.64 28.22 293.64 68.06 362.64"/><rect class="cls-4" x="133.65" y="157.03" width="193.57" height="18.54"/><rect class="cls-4" x="134.05" y="195.32" width="148.55" height="18.54"/><rect class="cls-5" x="52.22" y="156.64" width="57" height="57"/><rect class="cls-4" x="63.61" y="169.17" width="8.6" height="8.6"/><rect class="cls-4" x="88.93" y="169.28" width="8.6" height="8.6"/><rect class="cls-4" x="79.46" y="180.4" width="2.52" height="14.15"/><rect class="cls-4" x="67.9" y="196.83" width="8.6" height="2.75"/><rect class="cls-4" x="76.5" y="199.51" width="8.6" height="2.75"/><rect class="cls-4" x="85.09" y="196.84" width="8.6" height="2.75"/><rect class="cls-4" x="134.24" y="232.15" width="176.99" height="18.54"/><rect class="cls-6" x="399.72" y="331.14" width="33.5" height="33.5" transform="translate(832.95 695.79) rotate(180)"/><rect class="cls-6" x="399.72" y="298.64" width="33.5" height="33.5" transform="translate(832.95 630.79) rotate(180)"/><rect class="cls-6" x="367.22" y="331.14" width="33.5" height="33.5" transform="translate(767.95 695.79) rotate(180)"/></g></g></svg>