<svg xmlns="http://www.w3.org/2000/svg" viewBox="0 0 374.98 748"><defs><style>.cls-1{fill:#2fc3fb;}.cls-2{fill:#87f1fc;}.cls-3{fill:#9ff3fe;}.cls-4{fill:#01a572;}.cls-5{fill:#2cdbaa;}</style></defs><g id="Layer_2" data-name="Layer 2"><g id="Layer_1-2" data-name="Layer 1"><polygon class="cls-1" points="237.98 138 134.58 477.92 139.98 611 237.98 276 237.98 138"/><polygon class="cls-2" points="138.82 473 1.98 473 99.98 138 237.98 138 138.82 473"/><polygon class="cls-1" points="99.98 0 0 340.59 1.98 473 99.98 138 99.98 0"/><polygon class="cls-3" points="216.82 748 79.98 748 179.14 413 315.98 413 216.82 748"/><polygon class="cls-2" points="140.56 748 1.98 748 99.4 413 237.98 413 140.56 748"/><polygon class="cls-2" points="275.82 748 138.98 748 238.14 413 374.98 413 275.82 748"/><rect class="cls-4" x="99.98" y="276" width="275" height="137"/><rect class="cls-4" x="237.98" y="138" width="137" height="275"/><rect class="cls-5" x="99.98" width="138" height="138"/><polygon class="cls-1" points="99.98 276 0 616.59 1.99 748 99.98 413 99.98 276"/></g></g></svg>