<svg id="Layer_1" data-name="Layer 1" xmlns="http://www.w3.org/2000/svg" viewBox="0 0 375 748"><defs><style>.cls-1{fill:#70facf;}.cls-2{fill:#ffbf75;}.cls-3{fill:#58e0b2;}.cls-4{fill:#9ff3fe;}.cls-5{fill:#01a572;}</style></defs><polygon class="cls-1" points="275.84 473 139 473 237 138 375 138 275.84 473"/><rect class="cls-2" x="237" width="138" height="138"/><polygon class="cls-3" points="237 0 137.02 340.59 139 473 237 138 237 0"/><polygon class="cls-4" points="216.84 748 80 748 179.16 413 316 413 216.84 748"/><polygon class="cls-1" points="140.58 748 2 748 99.42 413 238 413 140.58 748"/><polygon class="cls-1" points="275.84 748 139 748 238.16 413 375 413 275.84 748"/><polygon class="cls-3" points="100 138 0 473 0 616 100 281.67 100 138"/><polygon class="cls-3" points="100 282 0.02 615.59 2 748 100 413 100 282"/><rect class="cls-5" x="100" y="276" width="275" height="137"/><rect class="cls-5" x="100" y="138" width="137" height="275"/><polygon class="cls-3" points="99.99 210 0.01 543.59 1.99 676 99.99 341 99.99 210"/></svg>